<svg version="1.2" xmlns="http://www.w3.org/2000/svg" viewBox="0 0 279 279" width="279" height="279">
	<style>
		.s0 { fill: #000000 } 
	</style>
	<path fill-rule="evenodd" class="s0" d="m72 9v63h-63v-63zm-54 9v45h45v-45zm36 9v27h-27v-27zm216-18v63h-63v-63zm-54 9v45h45v-45zm36 9v27h-27v-27zm-243 243v-63h63v63zm54-9v-45h-45v45zm-36-9v-27h27v27z"/>
	<path class="s0" d="m9 90v9h9v-9zm0 9v9h9v-9zm0 9v9h9v-9zm0 9v9h9v-9zm0 27v9h9v-9zm0 9v9h9v-9zm0 9v9h9v-9zm0 9v9h9v-9zm0 9v9h9v-9zm0 9v9h9v-9zm9-18v9h9v-9zm0 18v9h9v-9zm9-108v9h9v-9zm0 9v9h9v-9zm0 9v9h9v-9zm0 18v9h9v-9zm0 18v9h9v-9zm0 18v9h9v-9zm0 18v9h9v-9zm0 9v9h9v-9zm9-99v9h9v-9zm0 18v9h9v-9zm0 9v9h9v-9zm0 54v9h9v-9zm0 27v9h9v-9zm9-108v9h9v-9zm0 45v9h9v-9zm0 9v9h9v-9zm0 9v9h9v-9zm0 18v9h9v-9zm0 9v9h9v-9zm0 9v9h9v-9zm0 9v9h9v-9zm9-108v9h9v-9zm0 9v9h9v-9zm0 18v9h9v-9zm0 9v9h9v-9zm0 9v9h9v-9zm0 9v9h9v-9zm0 9v9h9v-9zm0 18v9h9v-9zm9-81v9h9v-9zm0 18v9h9v-9zm0 18v9h9v-9zm0 18v9h9v-9zm0 18v9h9v-9zm0 18v9h9v-9zm0 18v9h9v-9zm9-108v9h9v-9zm0 9v9h9v-9zm0 9v9h9v-9zm0 18v9h9v-9zm0 9v9h9v-9zm0 54v9h9v-9zm0 9v9h9v-9zm9-180v9h9v-9zm0 18v9h9v-9zm0 9v9h9v-9zm0 9v9h9v-9zm0 9v9h9v-9zm0 9v9h9v-9zm0 36v9h9v-9zm0 36v9h9v-9zm0 9v9h9v-9zm0 9v9h9v-9zm0 9v9h9v-9zm0 18v9h9v-9zm0 27v9h9v-9zm0 9v9h9v-9zm0 9v9h9v-9zm0 9v9h9v-9zm0 9v9h9v-9zm9-225v9h9v-9zm0 9v9h9v-9zm0 27v9h9v-9zm0 36v9h9v-9zm0 9v9h9v-9zm0 9v9h9v-9zm0 45v9h9v-9zm0 27v9h9v-9zm0 18v9h9v-9zm0 9v9h9v-9zm0 9v9h9v-9zm0 9v9h9v-9zm0 36v9h9v-9zm9-252v9h9v-9zm0 9v9h9v-9zm0 9v9h9v-9zm0 9v9h9v-9zm0 18v9h9v-9zm0 9v9h9v-9zm0 9v9h9v-9zm0 9v9h9v-9zm0 9v9h9v-9zm0 54v9h9v-9zm0 9v9h9v-9zm0 9v9h9v-9zm0 9v9h9v-9zm0 36v9h9v-9zm0 18v9h9v-9zm9-189v9h9v-9zm0 18v9h9v-9zm0 36v9h9v-9zm0 9v9h9v-9zm0 9v9h9v-9zm0 9v9h9v-9zm0 18v9h9v-9zm0 9v9h9v-9zm0 27v9h9v-9zm0 18v9h9v-9zm0 18v9h9v-9zm0 27v9h9v-9zm0 18v9h9v-9zm9-234v9h9v-9zm0 27v9h9v-9zm0 9v9h9v-9zm0 9v9h9v-9zm0 18v9h9v-9zm0 36v9h9v-9zm0 27v9h9v-9zm0 9v9h9v-9zm0 9v9h9v-9zm0 72v9h9v-9zm0 9v9h9v-9zm9-225v9h9v-9zm0 9v9h9v-9zm0 9v9h9v-9zm0 18v9h9v-9zm0 45v9h9v-9zm0 9v9h9v-9zm0 9v9h9v-9zm0 9v9h9v-9zm0 9v9h9v-9zm0 18v9h9v-9zm0 27v9h9v-9zm0 9v9h9v-9zm0 9v9h9v-9zm0 9v9h9v-9zm0 9v9h9v-9zm0 9v9h9v-9zm0 36v9h9v-9zm9-243v9h9v-9zm0 18v9h9v-9zm0 9v9h9v-9zm0 9v9h9v-9zm0 9v9h9v-9zm0 9v9h9v-9zm0 18v9h9v-9zm0 9v9h9v-9zm0 18v9h9v-9zm0 9v9h9v-9zm0 9v9h9v-9zm0 9v9h9v-9zm0 9v9h9v-9zm0 36v9h9v-9zm0 18v9h9v-9zm0 18v9h9v-9zm0 9v9h9v-9zm0 9v9h9v-9zm9-234v9h9v-9zm0 9v9h9v-9zm0 9v9h9v-9zm0 9v9h9v-9zm0 18v9h9v-9zm0 18v9h9v-9zm0 9v9h9v-9zm0 9v9h9v-9zm0 18v9h9v-9zm0 18v9h9v-9zm0 18v9h9v-9zm0 27v9h9v-9zm0 54v9h9v-9zm0 27v9h9v-9zm9-243v9h9v-9zm0 27v9h9v-9zm0 27v9h9v-9zm0 9v9h9v-9zm0 9v9h9v-9zm0 9v9h9v-9zm0 9v9h9v-9zm0 9v9h9v-9zm0 27v9h9v-9zm0 27v9h9v-9zm0 9v9h9v-9zm0 45v9h9v-9zm0 18v9h9v-9zm0 9v9h9v-9zm9-234v9h9v-9zm0 36v9h9v-9zm0 9v9h9v-9zm0 18v9h9v-9zm0 9v9h9v-9zm0 27v9h9v-9zm0 45v9h9v-9zm0 9v9h9v-9zm0 9v9h9v-9zm0 9v9h9v-9zm0 9v9h9v-9zm0 9v9h9v-9zm0 9v9h9v-9zm0 9v9h9v-9zm0 9v9h9v-9zm0 18v9h9v-9zm0 18v9h9v-9zm9-252v9h9v-9zm0 36v9h9v-9zm0 18v9h9v-9zm0 9v9h9v-9zm0 9v9h9v-9zm0 9v9h9v-9zm0 9v9h9v-9zm0 18v9h9v-9zm0 27v9h9v-9zm0 18v9h9v-9zm0 27v9h9v-9zm0 27v9h9v-9zm0 9v9h9v-9zm0 18v9h9v-9zm9-234v9h9v-9zm0 18v9h9v-9zm0 18v9h9v-9zm0 27v9h9v-9zm0 45v9h9v-9zm0 18v9h9v-9zm0 9v9h9v-9zm0 27v9h9v-9zm0 18v9h9v-9zm0 36v9h9v-9zm0 27v9h9v-9zm9-243v9h9v-9zm0 27v9h9v-9zm0 9v9h9v-9zm0 9v9h9v-9zm0 9v9h9v-9zm0 36v9h9v-9zm0 9v9h9v-9zm0 54v9h9v-9zm0 27v9h9v-9zm0 9v9h9v-9zm0 9v9h9v-9zm0 9v9h9v-9zm0 9v9h9v-9zm0 18v9h9v-9zm0 9v9h9v-9zm0 9v9h9v-9zm9-180v9h9v-9zm0 9v9h9v-9zm0 18v9h9v-9zm0 18v9h9v-9zm0 9v9h9v-9zm0 18v9h9v-9zm0 18v9h9v-9zm0 18v9h9v-9zm0 36v9h9v-9zm0 9v9h9v-9zm0 9v9h9v-9zm0 9v9h9v-9zm0 9v9h9v-9zm9-171v9h9v-9zm0 18v9h9v-9zm0 18v9h9v-9zm0 9v9h9v-9zm0 9v9h9v-9zm0 9v9h9v-9zm0 9v9h9v-9zm0 18v9h9v-9zm0 9v9h9v-9zm0 18v9h9v-9zm0 18v9h9v-9zm0 9v9h9v-9zm0 9v9h9v-9zm9-162v9h9v-9zm0 18v9h9v-9zm0 27v9h9v-9zm0 27v9h9v-9zm0 27v9h9v-9zm0 9v9h9v-9zm0 36v9h9v-9zm0 36v9h9v-9zm9-180v9h9v-9zm0 27v9h9v-9zm0 27v9h9v-9zm0 9v9h9v-9zm0 18v9h9v-9zm0 27v9h9v-9zm0 9v9h9v-9zm0 9v9h9v-9zm0 9v9h9v-9zm0 9v9h9v-9zm0 18v9h9v-9zm0 9v9h9v-9zm9-171v9h9v-9zm0 27v9h9v-9zm0 18v9h9v-9zm0 27v9h9v-9zm0 9v9h9v-9zm0 72v9h9v-9zm0 9v9h9v-9zm0 9v9h9v-9zm0 9v9h9v-9zm9-180v9h9v-9zm0 9v9h9v-9zm0 9v9h9v-9zm0 18v9h9v-9zm0 18v9h9v-9zm0 9v9h9v-9zm0 9v9h9v-9zm0 18v9h9v-9zm0 9v9h9v-9zm0 27v9h9v-9zm0 9v9h9v-9zm0 9v9h9v-9zm0 9v9h9v-9zm0 9v9h9v-9zm0 9v9h9v-9zm9-162v9h9v-9zm0 18v9h9v-9zm0 45v9h9v-9zm0 27v9h9v-9zm0 9v9h9v-9zm0 9v9h9v-9zm0 18v9h9v-9zm0 18v9h9v-9zm0 18v9h9v-9zm9-171v9h9v-9zm0 9v9h9v-9zm0 9v9h9v-9zm0 27v9h9v-9zm0 9v9h9v-9zm0 27v9h9v-9zm0 9v9h9v-9zm0 9v9h9v-9zm0 27v9h9v-9zm0 9v9h9v-9zm0 9v9h9v-9zm0 18v9h9v-9z"/>
</svg>